<?xml version="1.0" encoding="utf-8"?>
<!-- Generator: Adobe Illustrator 22.0.0, SVG Export Plug-In . SVG Version: 6.00 Build 0)  -->
<svg version="1.1" id="Livello_1" xmlns="http://www.w3.org/2000/svg" xmlns:xlink="http://www.w3.org/1999/xlink" x="0px" y="0px"
	 viewBox="0 0 385 57.5" style="enable-background:new 0 0 385 57.5;" xml:space="preserve">
<style type="text/css">
	.st0{fill:#0D0A27;}
	.st1{fill:#11ED21;}
</style>
<g>
	<path class="st0" d="M76.5,20.6v9.7h16.7v7.4H76.5v9.7h18.6v7.4H68.7V13.1h26.4v7.4H76.5z"/>
	<path class="st0" d="M121.5,51.4L121.5,51.4c-1.1,1.1-2.2,2.2-3.7,3c-1.5,0.7-3.3,1.1-5.6,1.1c-1.9,0-3.3-0.4-5.2-1.1
		c-1.9-0.7-3-1.9-4.5-3c-1.1-1.5-2.2-3-3-4.8c-0.7-1.9-1.1-3.7-1.1-6.3c0-2.2,0.4-4.5,1.1-6.3c0.7-1.9,1.9-3.3,3-4.8s2.6-2.2,4.5-3
		c1.9-0.7,3.3-1.1,5.2-1.1c2.2,0,4.1,0.4,5.6,1.1c1.5,0.7,2.6,1.9,3.3,3h0.4l-0.4-4.1V12.4h7.8V54h-7.1L121.5,51.4L121.5,51.4z
		 M113.7,48.8c1.1,0,1.9,0,3-0.7c0.7-0.4,1.9-0.7,2.6-1.5c0.7-0.7,1.1-1.5,1.9-2.6c0.4-1.1,0.7-2.2,0.7-3.3c0-1.1,0-2.6-0.7-3.3
		c-0.4-1.1-0.7-1.9-1.9-2.6c-0.7-0.7-1.5-1.1-2.6-1.5c-1.1-0.4-1.9-0.7-3-0.7s-1.9,0-3,0.7c-0.7,0.4-1.9,0.7-2.6,1.9
		c-0.7,0.7-1.1,1.5-1.9,2.6c-0.4,1.1-0.7,2.2-0.7,3.3s0,2.2,0.7,3.3c0.4,1.1,0.7,1.9,1.9,2.6c0.7,0.7,1.5,1.1,2.6,1.9
		C111.8,48.8,112.6,48.8,113.7,48.8z"/>
	<path class="st0" d="M139.3,22.8c-0.7,0-1.1,0-1.9-0.4c-0.7-0.4-1.1-0.7-1.5-1.1c-0.4-0.4-0.7-0.7-1.1-1.5
		c-0.4-0.7-0.4-1.1-0.4-1.9c0-0.7,0-1.5,0.4-1.9c0.4-0.7,0.7-1.1,1.1-1.5c0.4-0.4,0.7-0.7,1.5-1.1c0.7-0.4,1.1-0.4,1.9-0.4
		c1.5,0,2.6,0.4,3.3,1.5c0.7,0.7,1.5,2.2,1.5,3.3c0,1.5-0.4,2.6-1.5,3.3C142,22.1,140.5,22.8,139.3,22.8z M135.6,55.2V26.5h7.8v28.3
		L135.6,55.2L135.6,55.2z"/>
	<path class="st0" d="M150.1,55.2V13.5h7.8v41.7H150.1z"/>
	<path class="st0" d="M201.5,48.1c-1.9,2.6-4.5,4.5-7.1,5.6c-2.6,1.5-6,1.9-9.3,1.9c-3,0-6-0.7-8.6-1.9c-2.6-1.1-4.8-2.6-7.1-4.5
		c-2.2-1.9-3.3-4.5-4.5-7.1s-1.9-5.6-1.9-8.6s0.7-6,1.9-8.6c1.1-2.6,2.6-4.8,4.5-7.1c1.9-1.9,4.5-3.3,7.1-4.5
		c2.6-0.7,5.6-1.5,8.6-1.5c3.3,0,6.3,0.7,8.9,1.9c2.6,1.1,4.8,3,6.7,5.2l-5.6,5.2c-1.1-1.5-2.6-2.6-4.5-3.3
		c-1.5-0.7-3.3-1.1-5.6-1.1c-1.9,0-3.7,0.4-5.6,1.1c-1.9,0.7-3.3,1.9-4.5,3c-1.1,1.1-2.2,2.6-3,4.5c-0.7,1.9-1.1,3.7-1.1,6
		s0.4,4.1,1.1,6c0.7,1.9,1.9,3.3,3,4.5c1.1,1.1,2.6,2.2,4.5,3c1.9,0.7,3.3,1.1,5.6,1.1s4.5-0.4,6.3-1.5c1.9-0.7,3.3-2.2,4.8-4.1
		L201.5,48.1z"/>
	<path class="st0" d="M206.3,55.2V13.5h7.8v41.7H206.3z"/>
	<path class="st0" d="M233.5,25.4c2.2,0,4.5,0.4,6,1.1c1.9,0.7,3.3,1.9,4.8,3c1.5,1.1,2.2,3,3,4.8c0.7,1.9,1.1,3.7,1.1,6.3
		c0,2.2-0.4,4.5-1.1,6.3c-0.7,1.9-1.9,3.3-3,4.8s-3,2.2-4.8,3c-1.9,0.7-3.7,1.1-6,1.1c-2.2,0-4.5-0.4-6-1.1c-1.9-0.7-3.3-1.9-4.8-3
		c-1.5-1.5-2.2-3-3-4.8c-0.7-1.9-1.1-3.7-1.1-6.3c0-2.2,0.4-4.5,1.1-6.3c0.7-1.9,1.9-3.3,3-4.8c1.5-1.5,3-2.2,4.8-3
		C229.4,25.8,231.2,25.4,233.5,25.4z M233.5,48.8c0.7,0,1.9,0,2.6-0.7c0.7-0.4,1.9-0.7,2.6-1.5c0.7-0.7,1.1-1.5,1.9-2.6
		c0.4-1.1,0.7-2.2,0.7-3.3c0-1.1,0-2.6-0.7-3.3c-0.4-1.1-0.7-1.9-1.9-2.6c-0.7-0.7-1.5-1.1-2.6-1.5c-0.7-0.4-1.9-0.7-2.6-0.7
		c-1.1,0-1.9,0-3,0.7c-0.7,0.4-1.9,0.7-2.2,1.5c-0.7,0.7-1.1,1.5-1.9,2.6c-0.4,1.1-0.7,2.2-0.7,3.3c0,1.1,0,2.6,0.7,3.3
		c0.4,0.7,0.7,1.9,1.9,2.6c0.7,0.7,1.5,1.1,2.2,1.5C231.6,48.8,232.3,48.8,233.5,48.8z"/>
	<path class="st0" d="M272.9,51.1h-0.4c-0.7,1.5-2.2,2.6-3.3,3.3c-1.5,0.7-3.3,1.1-5.2,1.1c-3.3,0-6.3-1.1-7.8-3.3
		c-1.9-2.2-2.6-5.2-2.6-8.9V26.5h7.8v16.4c0,1.9,0.4,3.3,1.5,4.5c0.7,0.7,2.2,1.5,4.1,1.5c1.1,0,1.9,0,2.6-0.7
		c0.7-0.7,1.5-1.1,1.9-1.9s0.7-1.9,1.1-2.6c0.4-1.1,0.4-2.2,0.4-3.3V26.5h7.8v28.3h-7.4v-3.7H272.9z"/>
	<path class="st0" d="M307.5,51.4h-0.4c-0.7,1.1-1.9,2.2-3.3,3c-1.5,0.7-3.3,1.1-5.6,1.1c-1.9,0-3.3-0.4-5.2-1.1
		c-1.9-0.7-3-1.9-4.5-3c-1.1-1.1-2.2-3-3-4.8c-0.7-1.9-1.1-3.7-1.1-6.3c0-2.2,0.4-4.5,1.1-6.3c0.7-1.9,1.9-3.3,3-4.8
		c1.1-1.5,2.6-2.2,4.5-3c1.9-0.7,3.3-1.1,5.2-1.1c2.2,0,4.1,0.4,5.6,1.1c1.5,0.7,2.6,1.9,3.3,3h0.4l-0.4-4.1V12.4h7.8V54h-7.1
		L307.5,51.4L307.5,51.4z M299.7,48.8c1.1,0,1.9,0,3-0.7c0.7-0.4,1.9-0.7,2.6-1.5c0.7-0.7,1.1-1.5,1.9-2.6c0.4-1.1,0.7-2.2,0.7-3.3
		c0-1.1,0-2.6-0.7-3.3c-0.4-1.1-0.7-1.9-1.9-2.6c-0.7-0.7-1.5-1.1-2.6-1.5c-0.7-0.4-1.9-0.7-3-0.7c-1.1,0-1.9,0-3,0.7
		c-0.7,0.4-1.9,0.7-2.6,1.9c-0.7,0.7-1.1,1.5-1.9,2.6c-0.4,1.1-0.7,2.2-0.7,3.3s0,2.2,0.7,3.3c0.7,1.1,0.7,1.9,1.9,2.6
		c0.7,0.7,1.5,1.1,2.6,1.9C297.8,48.8,298.9,48.8,299.7,48.8z"/>
	<path class="st1" d="M327.2,55.2c-1.9,0-3-0.7-4.5-1.9c-1.1-1.1-1.9-2.6-1.9-4.1s0.7-3,1.9-4.1c1.1-1.1,2.6-1.9,4.5-1.9
		s3,0.7,4.5,1.9c1.1,1.1,1.9,2.6,1.9,4.1s-0.7,3-1.9,4.1C330.2,54.4,328.7,55.2,327.2,55.2z"/>
	<path class="st0" d="M343.9,22.8c-0.7,0-1.1,0-1.9-0.4c-0.7-0.4-1.1-0.7-1.5-1.1c-0.4-0.4-0.7-0.7-1.1-1.5
		c-0.4-0.7-0.4-1.1-0.4-1.9c0-0.7,0-1.5,0.4-1.9c0.4-0.7,0.7-1.1,1.1-1.5s0.7-0.7,1.5-1.1c0.7-0.4,1.1-0.4,1.9-0.4
		c1.5,0,2.6,0.4,3.3,1.5c0.7,1.1,1.5,2.2,1.5,3.3c0,1.5-0.4,2.6-1.5,3.3C346.2,22.1,345.4,22.8,343.9,22.8z M340.2,55.2V26.5h7.8
		v28.3L340.2,55.2L340.2,55.2z"/>
	<path class="st0" d="M367.7,25.4c2.2,0,4.5,0.4,6,1.1c1.9,0.7,3.3,1.9,4.8,3c1.5,1.1,2.2,3,3,4.8c0.7,1.9,1.1,3.7,1.1,6.3
		c0,2.2-0.4,4.5-1.1,6.3c-0.7,1.9-1.9,3.3-3,4.8c-1.1,1.5-3,2.2-4.8,3c-1.9,0.7-3.7,1.1-6,1.1s-4.5-0.4-6-1.1
		c-1.9-0.7-3.3-1.9-4.8-3c-1.5-1.5-2.2-3-3-4.8c-0.7-1.9-1.1-3.7-1.1-6.3c0-2.2,0.4-4.5,1.1-6.3c0.7-1.9,1.9-3.3,3-4.8
		c1.5-1.5,3-2.2,4.8-3C363.6,25.8,365.5,25.4,367.7,25.4z M367.7,48.8c0.7,0,1.9,0,2.6-0.7c0.7-0.4,1.9-0.7,2.6-1.5
		c0.7-0.7,1.1-1.5,1.9-2.6c0.4-1.1,0.7-2.2,0.7-3.3c0-1.1,0-2.6-0.7-3.3c-0.4-1.1-0.7-1.9-1.9-2.6c-0.7-0.7-1.5-1.1-2.6-1.5
		c-0.7-0.4-1.9-0.7-2.6-0.7c-1.1,0-1.9,0-3,0.7c-0.7,0.4-1.9,0.7-2.2,1.5c-0.7,0.7-1.1,1.5-1.9,2.6c-0.4,1.1-0.7,2.2-0.7,3.3
		c0,1.1,0,2.6,0.7,3.3c0.4,0.7,0.7,1.9,1.9,2.6c0.7,0.7,1.5,1.1,2.2,1.5C365.9,48.8,367,48.8,367.7,48.8z"/>
</g>
<g>
	<g>
		<rect x="20.9" y="3.2" class="st1" width="30.7" height="8.7"/>
		<rect x="42.8" y="11.9" class="st1" width="8.7" height="33.1"/>
	</g>
	<rect x="2.9" y="45.1" class="st0" width="48.6" height="9.2"/>
	<rect x="2.9" y="28.9" class="st0" width="8.7" height="18.2"/>
	
		<rect x="2.8" y="19.1" transform="matrix(0.7312 -0.6821 0.6821 0.7312 -12.1489 16.6586)" class="st0" width="24.6" height="9.3"/>
	
		<rect x="21.7" y="11.6" transform="matrix(0.6879 -0.7258 0.7258 0.6879 -8.5442 26.1591)" class="st0" width="8.9" height="22.9"/>
</g>
</svg>
